<mxfile host="Electron" agent="Mozilla/5.0 (Windows NT 10.0; Win64; x64) AppleWebKit/537.36 (KHTML, like Gecko) draw.io/24.7.5 Chrome/126.0.6478.183 Electron/31.3.0 Safari/537.36" version="24.7.5">
  <diagram name="第 1 页" id="l-922pKfYsNghK-JMkmo">
    <mxGraphModel dx="1004" dy="745" grid="1" gridSize="10" guides="1" tooltips="1" connect="1" arrows="1" fold="1" page="1" pageScale="1" pageWidth="827" pageHeight="1169" math="0" shadow="0">
      <root>
        <mxCell id="0" />
        <mxCell id="1" parent="0" />
        <mxCell id="SwzHIpHhVzI6DbDRDsR4-3" style="edgeStyle=orthogonalEdgeStyle;rounded=0;orthogonalLoop=1;jettySize=auto;html=1;exitX=1;exitY=0.5;exitDx=0;exitDy=0;entryX=0;entryY=0.5;entryDx=0;entryDy=0;" edge="1" parent="1" source="SwzHIpHhVzI6DbDRDsR4-1" target="SwzHIpHhVzI6DbDRDsR4-2">
          <mxGeometry relative="1" as="geometry" />
        </mxCell>
        <mxCell id="SwzHIpHhVzI6DbDRDsR4-1" value="&lt;span style=&quot;font-family: 等线;&quot;&gt;&lt;font style=&quot;font-size: 16px;&quot;&gt;浏览页面&lt;/font&gt;&lt;/span&gt;" style="rounded=1;whiteSpace=wrap;html=1;" vertex="1" parent="1">
          <mxGeometry x="240" y="290" width="120" height="60" as="geometry" />
        </mxCell>
        <mxCell id="SwzHIpHhVzI6DbDRDsR4-2" value="&lt;span style=&quot;font-family: 等线;&quot;&gt;&lt;font style=&quot;font-size: 16px;&quot;&gt;执行者浏览子类详细信息页面&lt;/font&gt;&lt;/span&gt;" style="rounded=1;whiteSpace=wrap;html=1;" vertex="1" parent="1">
          <mxGeometry x="460" y="290" width="120" height="60" as="geometry" />
        </mxCell>
      </root>
    </mxGraphModel>
  </diagram>
</mxfile>
